<?xml version="1.0" encoding="utf-8"?>
<!-- Generator: Adobe Illustrator 17.1.0, SVG Export Plug-In . SVG Version: 6.00 Build 0)  -->
<!DOCTYPE svg PUBLIC "-//W3C//DTD SVG 1.1//EN" "http://www.w3.org/Graphics/SVG/1.1/DTD/svg11.dtd">
<svg version="1.1" id="Layer_1" xmlns="http://www.w3.org/2000/svg" xmlns:xlink="http://www.w3.org/1999/xlink" x="0px" y="0px"
	 viewBox="0 0 512 512" enable-background="new 0 0 512 512" xml:space="preserve">
<g>
	<path fill="#D44B14" d="M402.3,512H109.7C49.2,512,0,462.8,0,402.3V109.7C0,49.2,49.2,0,109.7,0h182.9c20.2,0,36.6,16.4,36.6,36.6
		c0,20.2-16.3,36.6-36.6,36.6H109.7c-20.2,0-36.6,16.4-36.6,36.6v292.6c0,20.2,16.4,36.6,36.6,36.6h292.6
		c20.2,0,36.6-16.4,36.6-36.6V292.6c0-20.2,16.3-36.6,36.6-36.6s36.6,16.4,36.6,36.6v109.7C512,462.8,462.8,512,402.3,512"/>
	<path fill="#D44B14" d="M298.6,359.6c-12.8,0-25.2-5.1-34.4-14.3l-97.6-97.5c-19-19.1-19-49.9,0-68.9c19.1-19.1,49.9-19.1,69,0
		l51.8,51.8L414.5,31.2c13.1-23.6,42.8-32.1,66.3-19c23.5,13.1,32,42.8,18.9,66.3l-158.5,256c-7.4,13.4-20.7,22.5-35.8,24.6
		C303.1,359.5,300.9,359.6,298.6,359.6"/>
</g>
</svg>
