<?xml version="1.0" encoding="utf-8"?>
<!-- Generator: Adobe Illustrator 17.1.0, SVG Export Plug-In . SVG Version: 6.00 Build 0)  -->
<!DOCTYPE svg PUBLIC "-//W3C//DTD SVG 1.1//EN" "http://www.w3.org/Graphics/SVG/1.1/DTD/svg11.dtd">
<svg version="1.1" id="Layer_1" xmlns="http://www.w3.org/2000/svg" xmlns:xlink="http://www.w3.org/1999/xlink" x="0px" y="0px"
	 viewBox="0 0 45 45" enable-background="new 0 0 45 45" xml:space="preserve">
<path fill="#d44b14" d="M35.4,0h-9.6H9.6C4.3,0,0,4.3,0,9.6v25.7c0,0.9,0.1,1.8,0.4,2.6c0.2,0.6,0.4,1.2,0.7,1.7
	c0.1,0.1,0.1,0.3,0.2,0.4c0.2,0.4,0.5,0.8,0.8,1.2c0.1,0.2,0.3,0.4,0.4,0.5c0.1,0.1,0.2,0.2,0.3,0.3c0.5,0.5,1.2,1,1.8,1.4
	c0.2,0.1,0.4,0.2,0.6,0.3c0.8,0.4,1.6,0.7,2.4,0.9c0.2,0,0.3,0.1,0.5,0.1C8.6,45,9.1,45,9.6,45h16.1h9.6c5.3,0,9.6-4.3,9.6-9.6v-8.2
	v-1.5V9.6C45,4.3,40.7,0,35.4,0z M38.6,25.7v1.5v8.2c0,1.8-1.4,3.2-3.2,3.2h-9.6H9.6c-1.8,0-3.2-1.4-3.2-3.2V9.6
	c0-1.8,1.4-3.2,3.2-3.2h16.1h9.6c1.8,0,3.2,1.4,3.2,3.2V25.7z"/>
</svg>
